<svg version="1.1" id="Layer_1" xmlns="http://www.w3.org/2000/svg" xmlns:xlink="http://www.w3.org/1999/xlink" x="0px" y="0px"
	 width="100%" viewBox="0 0 576 576" enable-background="new 0 0 576 576" xml:space="preserve">
<path fill="#000000" opacity="1.000000" stroke="none" 
	d="
M234.574036,77.484627 
	C233.869553,76.004120 232.551422,75.182312 232.844864,73.356827 
	C235.624512,72.350441 238.254868,73.657616 240.804550,74.404968 
	C271.527344,83.410255 292.925659,117.664627 287.827393,149.215408 
	C286.354645,158.329590 283.551941,166.932877 280.089539,175.456894 
	C277.951355,180.720840 275.072388,186.103027 277.170990,192.256943 
	C278.760681,196.918610 280.619843,197.919449 284.950439,195.465179 
	C292.624451,191.116119 296.726379,183.857422 299.587280,175.902145 
	C302.925964,166.618317 303.751770,157.089859 301.211212,147.411896 
	C300.469360,144.585831 300.157928,142.075974 304.405975,141.948807 
	C330.379272,141.171280 356.052887,142.872818 380.570801,152.334305 
	C426.110138,169.907974 454.086914,203.084076 466.259094,249.985046 
	C474.306549,280.992859 473.849609,312.237823 468.489380,343.584656 
	C463.263977,374.143005 452.346954,402.292389 432.763092,426.626953 
	C413.413513,450.670410 388.064117,463.859619 357.346069,465.250122 
	C306.229187,467.563995 255.057343,465.638184 203.911102,466.102356 
	C184.247009,466.280853 164.579956,466.173157 144.914505,466.110809 
	C142.411484,466.102875 139.234741,467.098022 138.009872,463.692535 
	C136.816895,460.375793 139.090805,458.607605 141.425842,456.726898 
	C152.651016,447.685974 158.464371,435.522186 158.519333,421.461182 
	C158.829453,342.133118 158.844299,262.802917 158.588547,183.474640 
	C158.544144,169.700348 152.186859,158.162292 141.772537,149.027679 
	C140.170303,147.622330 137.741577,146.435715 138.528656,143.925247 
	C139.367416,141.249985 142.109818,142.008163 144.159653,142.000656 
	C163.825027,141.928696 183.490677,141.916718 203.156235,141.918198 
	C204.776718,141.918320 206.514481,141.545517 207.985611,142.879730 
	C208.895706,145.192719 207.026337,146.503754 205.936768,148.057312 
	C197.884003,159.539322 190.071045,171.100937 186.770050,185.084595 
	C182.967224,201.194092 183.955063,216.676132 192.120651,231.445969 
	C190.337509,221.085770 190.994003,210.846100 193.086838,200.633392 
	C196.743927,182.787384 206.663605,168.235931 217.450485,154.157074 
	C223.326660,146.487564 229.537628,139.066788 234.650177,130.841507 
	C245.619766,113.193062 246.201004,95.496429 234.574036,77.484627 
M373.878204,213.633011 
	C364.606995,206.076172 354.284210,200.665100 342.820282,197.037979 
	C334.261230,194.329956 325.032074,194.775116 315.533417,190.285126 
	C313.241608,218.883301 291.101654,235.018784 275.840759,257.115509 
	C275.198547,254.750244 274.820374,253.992630 274.811676,253.230835 
	C274.662689,240.139420 269.934387,229.121490 261.000122,219.445282 
	C250.371796,207.934311 245.987106,194.152817 248.551514,178.433212 
	C248.728058,177.351028 248.948959,176.097260 247.139023,174.487900 
	C236.106262,184.126114 226.002167,194.490463 222.343506,209.339249 
	C218.791473,223.755325 221.770523,237.402786 228.812302,250.309158 
	C234.284836,260.339386 237.007706,270.954895 235.312027,282.469910 
	C234.084793,290.803711 230.116089,297.854553 225.248627,304.505341 
	C214.784332,318.803497 209.497665,334.177124 215.562073,351.831390 
	C217.446808,357.318115 220.577805,361.983612 226.121811,366.733551 
	C224.344055,354.871582 223.463028,344.373505 226.812225,334.224640 
	C230.208115,323.934387 236.875259,316.275665 247.377945,310.923523 
	C247.418854,314.878143 245.709702,317.271606 244.895309,319.859375 
	C240.981628,332.295319 242.786804,344.589264 245.671173,356.816498 
	C249.120621,371.439240 250.034851,386.014496 239.713959,398.121490 
	C234.138184,404.662262 232.810684,411.252655 233.304550,419.106079 
	C233.658813,424.739410 234.366440,425.661926 240.174118,425.684448 
	C250.005096,425.722534 259.836304,425.702515 269.667389,425.720306 
	C271.903137,425.724365 274.354736,425.738281 274.299347,428.852783 
	C274.093231,440.444244 285.793030,445.148926 295.089966,439.565735 
	C299.518890,436.906067 310.187042,442.144043 311.484406,447.157867 
	C312.672241,451.748474 316.074371,453.867706 320.263855,455.149963 
	C323.964752,456.282684 327.133331,455.491302 329.837067,452.682129 
	C336.095917,446.179016 342.518677,444.708038 350.658936,448.235016 
	C353.464386,449.450562 355.928406,449.576813 358.785400,448.512207 
	C367.833801,445.140564 376.990082,442.058136 386.034821,438.677155 
	C389.013855,437.563599 391.565277,437.552826 394.615692,438.758789 
	C403.102112,442.113800 409.806763,437.370422 409.705017,428.395660 
	C409.682465,426.405548 409.689362,424.348511 409.203003,422.444824 
	C408.316772,418.976074 409.048828,416.489380 411.985077,414.171722 
	C415.713501,411.228729 416.195038,406.133331 413.150116,402.772308 
	C411.566986,401.024902 411.557220,399.331268 411.571045,397.307678 
	C411.615479,390.812622 411.780457,384.302399 411.406769,377.826416 
	C411.178223,373.865448 411.872742,365.415680 413.654419,362.135773 
	C419.206726,351.914673 416.317200,342.383667 410.956116,333.304749 
	C408.653351,329.405090 407.203522,325.619324 407.749359,321.094910 
	C409.450836,306.990051 409.523163,292.852203 407.611420,278.789032 
	C404.156464,253.373276 394.145752,231.213333 373.878204,213.633011 
z"/>
<path fill="#000000" opacity="1.000000" stroke="none" 
	d="
M269.483948,354.986755 
	C267.128082,346.503143 270.623657,339.809052 275.034302,333.656433 
	C281.266632,324.962585 289.564270,318.605255 299.385132,314.309662 
	C300.749146,313.713074 302.202881,313.293121 303.649536,312.927704 
	C304.251312,312.775665 304.943390,312.981171 306.120117,313.058716 
	C305.367310,324.146393 313.529663,326.732819 321.730255,329.138885 
	C333.362457,332.551788 345.088501,332.618439 356.640900,328.978546 
	C364.487854,326.506104 372.742920,324.010529 372.173767,313.537964 
	C373.638184,312.726654 374.596985,312.922180 375.541504,313.335205 
	C388.533417,319.016296 399.588898,326.930359 405.959503,340.102936 
	C411.442261,351.439850 408.024597,361.188538 396.645660,366.682373 
	C383.403015,373.075958 369.175446,375.841583 354.697327,376.940613 
	C334.685272,378.459686 314.774811,377.184998 295.252838,372.214294 
	C289.462280,370.739868 283.926636,368.380249 278.599121,365.561249 
	C274.263641,363.267212 271.078094,360.124878 269.483948,354.986755 
z"/>
<path fill="#000000" opacity="1.000000" stroke="none" 
	d="
M314.772247,241.620697 
	C335.460571,237.449814 355.528198,236.900040 374.850220,245.740982 
	C381.727539,248.887756 386.939850,253.958511 389.667603,261.237518 
	C393.275421,270.864990 390.397491,279.678284 381.558533,284.958862 
	C372.669006,290.269623 362.753754,292.440460 352.587128,293.605957 
	C336.822571,295.413177 321.334534,294.130463 306.223663,289.182343 
	C296.859619,286.116089 288.866425,281.202698 287.987915,270.326965 
	C287.115875,259.531647 293.204376,252.100983 301.897369,246.647034 
	C305.708191,244.256149 309.845062,242.429703 314.772247,241.620697 
z"/>
<path fill="#000000" opacity="1.000000" stroke="none" 
	d="
M313.929443,412.989075 
	C318.240631,408.502228 319.536591,403.255981 319.672211,397.615570 
	C319.748291,394.450653 319.681305,391.282501 319.706421,388.116028 
	C319.722504,386.091736 319.693573,383.834686 322.009369,383.071472 
	C324.409393,382.280548 326.681061,383.156250 328.345276,385.012573 
	C330.827454,387.781281 331.344299,391.222107 331.335693,394.814117 
	C331.306152,407.147278 331.306396,419.480560 331.313751,431.813782 
	C331.318329,439.458954 331.333344,439.458954 323.889893,439.148254 
	C322.719879,441.129120 323.375214,443.344696 323.187256,445.452972 
	C323.053314,446.955383 323.126495,448.564514 321.237732,449.067230 
	C319.442200,449.545166 317.994324,448.954224 316.821014,447.514221 
	C314.496796,444.661621 314.465546,441.355408 315.011261,438.004669 
	C315.490997,435.059082 315.962677,432.151184 315.197418,428.615570 
	C303.777100,434.556458 295.986908,429.032928 288.893127,420.571320 
	C286.079956,423.240356 287.654175,426.551270 287.342926,429.443848 
	C287.057495,432.096619 287.516571,435.411194 283.767792,435.430939 
	C280.369385,435.448853 278.744049,432.502716 278.871155,429.548218 
	C279.110687,423.981628 277.989014,419.022522 274.555176,414.601776 
	C274.170471,414.106476 273.926300,413.359741 273.925781,412.729340 
	C273.915680,400.428284 272.562225,388.080292 274.888916,375.860718 
	C275.287079,373.769684 275.536499,370.740021 278.795532,370.941498 
	C282.134949,371.147949 283.022766,373.701508 283.163940,376.621277 
	C283.507843,383.733673 282.898499,390.827179 285.222076,397.881592 
	C288.591675,408.111938 295.886658,413.172363 305.724182,415.487610 
	C308.670624,416.181091 311.286346,414.959320 313.929443,412.989075 
z"/>
<path fill="#000000" opacity="1.000000" stroke="none" 
	d="
M388.729065,404.468262 
	C388.009064,407.705963 386.396057,410.049500 384.481354,412.113800 
	C379.558289,417.421509 371.223724,415.893494 368.700043,409.155792 
	C366.014679,401.986267 367.520905,395.282349 372.401550,389.649811 
	C377.941467,383.256470 386.100403,385.233124 388.642029,393.304199 
	C389.763214,396.864471 389.841644,400.476837 388.729065,404.468262 
M382.284485,408.640350 
	C384.800659,407.153168 385.781494,404.603363 386.222290,402.018707 
	C386.733124,399.023590 385.714630,396.220398 382.494568,395.389862 
	C380.155731,394.786652 378.495758,396.677795 377.216522,398.431122 
	C375.481201,400.809601 374.556549,403.442566 376.139740,406.291107 
	C377.328186,408.429474 378.782562,410.225983 382.284485,408.640350 
z"/>
<path fill="#000000" opacity="1.000000" stroke="none" 
	d="
M358.330505,407.088196 
	C358.330353,413.358307 358.330353,419.140717 358.330353,424.813080 
	C351.652771,425.810669 349.820709,424.481018 349.717468,418.847778 
	C349.610718,413.022827 349.682190,407.205414 349.058594,401.388733 
	C348.567291,396.806427 349.702240,392.455658 352.075653,388.464478 
	C353.106995,386.730133 354.020081,384.828369 356.603149,385.431396 
	C359.198822,386.037415 359.316010,388.113068 359.225739,390.151398 
	C358.982727,395.636871 358.636169,401.117767 358.330505,407.088196 
z"/>
<path fill="#000000" opacity="1.000000" stroke="none" 
	d="
M404.128113,383.177307 
	C404.142883,392.787811 404.179810,401.920135 404.153778,411.052246 
	C404.147949,413.096954 403.924713,415.369843 401.243988,415.442291 
	C398.912140,415.505280 396.910309,414.393158 396.898163,411.675537 
	C396.838959,398.429230 396.871399,385.182495 396.871399,371.876312 
	C400.660217,370.983704 402.632782,372.183167 403.237701,375.316345 
	C403.706390,377.743988 403.843170,380.235748 404.128113,383.177307 
z"/>
<path fill="#000000" opacity="1.000000" stroke="none" 
	d="
M297.299072,383.960754 
	C297.718323,392.523926 301.731659,398.140137 309.251007,401.213867 
	C311.717560,402.222168 314.102020,403.274536 312.901062,406.556091 
	C311.666077,409.930664 308.991943,408.903168 306.587646,408.202820 
	C293.880371,404.501221 287.977997,392.907288 291.715088,378.786591 
	C295.345856,378.275726 297.437195,379.537262 297.299072,383.960754 
z"/>
<path fill="#000000" opacity="1.000000" stroke="none" 
	d="
M362.018494,435.165161 
	C358.358521,443.400146 355.354034,444.621216 349.028870,441.178772 
	C344.139740,438.517883 347.523529,435.105255 348.174805,432.134399 
	C348.871033,428.958435 351.286560,429.312134 353.655792,430.489807 
	C356.437653,431.872589 359.584503,432.552704 362.018494,435.165161 
z"/>
<path fill="#000000" opacity="1.000000" stroke="none" 
	d="
M312.042267,311.556030 
	C311.936920,307.958008 311.808105,304.810883 311.784424,301.662903 
	C311.773346,300.192413 311.672485,298.390808 313.856506,298.440155 
	C315.662384,298.480896 317.506012,298.716614 318.241730,300.932465 
	C319.269958,304.029388 319.417053,316.113373 318.284088,319.780975 
	C313.252197,319.541931 312.452271,315.945953 312.042267,311.556030 
z"/>
<path fill="#000000" opacity="1.000000" stroke="none" 
	d="
M265.185730,380.409424 
	C268.659180,381.025513 269.966187,382.693298 269.533447,386.055573 
	C268.842621,391.423218 270.054596,396.923767 268.961395,402.418457 
	C262.654205,399.865662 260.511017,387.340240 265.185730,380.409424 
z"/>
<path fill="#000000" opacity="1.000000" stroke="none" 
	d="
M364.509277,297.997070 
	C365.985016,303.528473 365.389954,308.977631 365.084137,314.368866 
	C364.921967,317.227661 363.252228,319.615295 359.026978,319.850647 
	C358.457916,313.304810 358.740204,306.961304 359.524719,300.666626 
	C359.814056,298.345062 362.121674,297.951080 364.509277,297.997070 
z"/>
<path fill="#000000" opacity="1.000000" stroke="none" 
	d="
M402.021637,422.100830 
	C403.436584,425.615173 402.527344,428.600037 401.308289,431.521332 
	C400.662170,433.069611 398.561798,434.333466 398.062500,432.837280 
	C397.000214,429.654358 394.220306,428.177887 392.676117,425.668640 
	C391.635040,423.977020 391.813141,421.712921 393.164856,420.060516 
	C394.689178,418.197144 396.737610,418.676270 398.589630,419.597260 
	C399.741180,420.169891 400.747803,421.033966 402.021637,422.100830 
z"/>
</svg>